<svg width="512" height="198" viewBox="0 0 512 198" fill="none" xmlns="http://www.w3.org/2000/svg">
<path fill-rule="evenodd" clip-rule="evenodd" d="M79.9857 125.17C76.2109 125.127 73.8678 124.126 71.6552 122.907C67.3599 120.601 63.1077 118.252 58.8558 115.903C51.769 112.016 44.697 108.115 37.6391 104.199C35.7735 103.198 33.9078 102.198 32.1723 101.023C31.0442 100.283 30.0028 99.2828 29.1351 98.2385C27.4865 96.2371 27.3563 93.8442 28.3108 91.5382C29.6559 88.3186 31.261 85.1862 32.8664 82.097C35.2529 77.3981 37.7258 72.7864 40.199 68.1309C43.106 62.5621 46.0563 56.993 49.0068 51.3804C51.9571 45.7679 54.9073 40.0684 57.9013 34.4123C60.4177 29.5395 63.021 24.6665 65.5808 19.7936C67.6201 15.9215 69.6159 11.9622 71.6984 8.09003C72.9134 5.78408 74.0415 3.34764 75.9506 1.4768C77.4691 -0.0459774 79.1611 -0.437549 80.81 0.519627C81.6778 1.04172 82.5455 1.78136 83.0661 2.60801C84.4112 4.69638 85.6694 6.82827 86.8409 9.00368C88.5765 12.1798 90.2251 15.4429 91.9174 18.6624C94.4772 23.5788 97.0371 28.4952 99.5969 33.4115C101.593 37.2404 103.632 41.0254 105.628 44.8543C107.392 48.2478 109.171 51.6416 110.965 55.0351C112.787 58.5593 114.652 62.0398 116.475 65.564C118.254 68.914 119.989 72.3078 121.768 75.6579C124.024 80.0087 126.324 84.2723 128.493 88.6667C129.144 89.8849 129.578 91.2338 129.968 92.5825C130.749 95.5844 129.708 98.1081 127.408 99.8483C125.326 101.415 123.113 102.676 120.9 103.938C116.996 106.157 113.047 108.289 109.142 110.421C105.02 112.683 100.899 114.902 96.7768 117.165C93.002 119.253 89.2272 121.341 85.4091 123.343C83.3264 124.474 81.1572 125.17 79.9857 125.17ZM60.4612 86.4479C62.1098 87.3615 63.6717 88.2751 65.2339 89.1017C69.4858 91.4512 73.7377 93.7572 77.9899 96.1067C78.6841 96.4983 79.2916 96.4983 79.9857 96.1502C83.8472 94.0184 87.7087 91.8863 91.6137 89.7545C93.5515 88.6812 95.5039 87.5937 97.471 86.4914C96.2994 83.5329 79.4649 51.8155 78.8142 51.4674C72.6963 63.0841 66.5787 74.7443 60.4612 86.4479Z" fill="#086C81"/>
<path fill-rule="evenodd" clip-rule="evenodd" d="M350.051 116.731C350.051 129.535 350.11 142.34 350.051 155.145C349.994 161.748 348.962 168.237 346.377 174.381C342.132 184.602 334.954 191.55 324.68 194.765C312.453 198.555 300.226 197.981 288.344 193.158C279.332 189.482 272.788 182.937 269.229 173.462C268.483 171.452 267.851 169.328 267.507 167.261C267.105 164.907 268.655 162.954 270.894 162.897C272.673 162.839 274.51 162.839 276.29 162.839C280.882 162.839 285.474 162.897 290.009 162.839C292.304 162.839 294.083 163.586 295.404 165.595C298.504 170.247 303.039 171.452 308.148 171.338C311.993 171.28 315.496 170.247 318.136 167.261C320.489 164.619 321.466 161.346 321.81 157.901C322.04 155.604 321.923 153.25 321.983 150.896C321.983 150.379 321.923 149.92 321.81 149.46C321.466 147.508 320.318 146.991 318.767 148.14C316.988 149.403 315.38 150.953 313.544 152.102C308.148 155.547 302.178 156.638 295.978 156.121C283.291 155.088 274.166 148.197 268.999 136.483C261.996 120.75 261.996 104.615 268.999 88.7667C272.731 80.4407 278.873 74.2967 287.369 71.2533C296.726 67.9806 305.909 68.4972 314.462 74.0671C315.84 74.9858 317.102 76.1915 318.423 77.225C320.375 78.718 321.58 78.1437 321.923 75.6749C321.983 74.9858 322.04 74.2967 322.154 73.6076C322.441 71.9424 323.762 70.6219 325.427 70.4494C326.231 70.3346 327.092 70.3346 327.893 70.3346C333.749 70.3346 339.606 70.3346 345.459 70.3346C346.09 70.3346 346.723 70.4494 347.354 70.5645C348.789 70.8515 349.65 71.8276 349.88 73.3206C350.11 74.4689 350.11 75.7323 350.11 76.938C350.147 90.183 350.167 103.447 350.167 116.731C350.127 116.731 350.09 116.731 350.051 116.731ZM321.983 111.735C321.983 109.84 321.636 107.199 320.662 104.672C318.48 98.8728 314.462 95.3701 308.378 94.9107C302.352 94.4514 297.47 97.0354 294.774 102.777C291.617 109.438 291.674 116.328 295.231 122.875C300.113 131.832 312.109 132.694 318.309 124.655C321.006 121.152 321.983 116.96 321.983 111.735Z" fill="#086C81"/>
<path d="M169.751 112.424C169.751 100.079 169.693 87.6755 169.751 75.2728C169.751 74.2393 170.095 73.1481 170.439 72.1146C170.841 70.8515 171.932 70.2772 173.195 70.1624C173.998 70.0476 174.802 70.0476 175.606 70.0476C181.499 70.0476 187.392 70.0476 193.285 70.0476C193.859 70.0476 194.414 70.0857 194.95 70.1624C196.443 70.4494 197.591 71.598 197.82 73.1481C197.993 74.1245 198.05 75.1006 198.165 76.1341C198.452 78.3736 199.714 79.0051 201.551 77.6845C202.527 76.9954 203.331 76.2489 204.249 75.5024C210.506 70.679 217.567 68.8416 225.316 69.4159C231.975 69.9328 237.945 72.2294 242.881 77.1102C247.531 81.7038 250.171 87.4459 251.606 93.8197C252.927 99.6767 252.927 105.591 252.927 111.505C252.927 123.87 252.927 136.254 252.927 148.656C252.927 149.69 252.869 150.724 252.754 151.757C252.467 153.537 251.549 154.456 249.827 154.8C249.138 154.915 248.43 154.973 247.703 154.973C241.81 154.973 235.935 154.973 230.08 154.973C229.812 154.973 229.564 154.973 229.334 154.973C226.12 154.8 225.029 153.652 224.857 150.322C224.857 149.575 224.857 148.771 224.857 148.025C224.857 135.239 224.838 122.434 224.799 109.61C224.799 106.567 224.34 103.639 223.02 100.882C220.552 95.6572 215.328 93.0158 209.416 93.8771C203.044 94.8533 198.796 99.7341 198.165 106.682C198.05 108.175 197.993 109.668 197.993 111.161C197.993 124.195 197.993 137.172 197.935 150.149C197.973 150.647 197.954 151.144 197.878 151.642C197.533 153.595 196.615 154.571 194.721 154.8C193.745 154.973 192.769 154.973 191.851 154.973C186.569 155.011 181.269 155.011 175.95 154.973C174.917 154.973 173.826 154.915 172.793 154.743C171.358 154.513 170.439 153.595 170.152 152.102C169.923 150.838 169.751 149.575 169.751 148.312C169.693 136.368 169.693 124.425 169.693 112.481C169.731 112.443 169.751 112.424 169.751 112.424Z" fill="#086C81"/>
<path fill-rule="evenodd" clip-rule="evenodd" d="M403.666 156.006C394.425 155.949 385.813 153.71 378.178 148.14C369.051 141.364 364.059 131.947 362.394 120.578C361.303 113.171 361.476 105.763 363.599 98.5284C367.329 85.6088 375.194 76.5936 387.421 72.0001C399.418 67.5211 411.474 67.8084 423.126 73.1484C434.205 78.2588 441.206 87.1589 444.363 99.2175C446.832 108.577 446.776 118.051 443.906 127.354C440.175 139.699 432.367 148.14 420.771 152.848C415.261 155.088 409.579 155.949 403.666 156.006ZM417.557 112.481C417.557 108.979 417.097 105.534 415.492 102.318C413.079 97.4949 409.292 94.7959 403.953 94.7959C398.613 94.7959 394.653 97.3798 392.473 102.318C389.43 109.094 389.487 116.099 392.473 122.817C396.605 132.005 408.661 132.866 414.287 124.597C416.81 120.98 417.557 116.845 417.557 112.481Z" fill="#086C81"/>
<path d="M457.741 112.424C457.741 99.9827 457.741 87.5417 457.741 75.1006C457.778 74.488 457.834 73.8756 457.911 73.2632C458.255 71.4255 459.232 70.392 461.011 70.1624C461.815 70.0476 462.676 70.0476 463.48 70.0476C469.334 70.0476 475.19 70.0666 481.046 70.105C481.657 70.105 482.251 70.1434 482.825 70.2198C484.373 70.5068 485.351 71.4255 485.581 73.0333C485.751 74.0094 485.751 74.9858 485.808 76.0193C485.868 76.9954 485.868 77.9715 485.982 78.9477C486.325 81.2446 487.53 81.7041 489.312 80.3259C489.942 79.809 490.573 79.1775 491.147 78.6032C495.395 74.4115 500.217 71.3681 506.016 70.0476C506.437 69.9328 506.857 69.8561 507.278 69.818C510.895 69.3011 511.526 71.0811 511.927 73.7224C512.043 74.4115 511.986 75.2154 511.986 75.9045C511.986 82.4503 511.986 88.9389 511.927 95.4276C511.927 96.2889 511.756 97.2076 511.583 98.0689C511.239 99.5616 510.205 100.481 508.77 100.595C507.105 100.768 505.499 100.71 503.834 100.825C501.422 101.055 498.955 101.169 496.6 101.686C490.229 103.179 486.612 107.658 486.038 114.376C485.885 116.137 485.808 117.898 485.808 119.659C485.808 129.765 485.808 139.814 485.808 149.92C485.808 150.379 485.808 150.838 485.695 151.355C485.408 153.652 484.433 154.685 482.194 154.858C480.816 154.973 479.438 155.03 478.06 155.03C473.008 155.03 467.899 155.03 462.849 154.973C458.945 154.973 457.797 153.767 457.797 149.69C457.741 137.23 457.741 124.827 457.741 112.424Z" fill="#086C81"/>
<path d="M145.422 151.992C142.741 151.819 140.016 151.733 137.378 151.43C133.831 151.084 131.193 149.095 129.463 146.024C126.739 141.354 124.23 136.553 121.765 131.753C121.16 130.542 120.857 129.115 120.727 127.774C120.425 124.79 121.981 122.715 124.274 121.244C126.609 119.731 129.031 118.39 131.453 117.049C132.794 116.357 134.178 115.709 135.648 115.233C138.935 114.109 141.573 114.887 143.649 117.741C145.163 119.817 146.417 122.109 147.628 124.358C149.315 127.385 150.915 130.456 152.515 133.569C154.245 136.899 155.975 140.273 157.618 143.689C158.007 144.511 158.18 145.548 158.224 146.457C158.397 148.879 156.926 150.738 154.418 151.257C152.991 151.56 151.477 151.689 150.007 151.776C148.493 151.862 146.936 151.819 145.422 151.819C145.422 151.877 145.422 151.934 145.422 151.992Z" fill="#086C81"/>
<path d="M12.094 151.992C9.92077 151.862 7.09557 151.776 4.35732 151.43C2.48835 151.17 0.793216 150.305 0.184725 148.272C-0.0760635 147.32 -0.0325982 146.239 0.14126 145.244C0.53243 142.908 1.79291 140.919 2.87953 138.842C5.09621 134.56 7.35636 130.278 9.65999 126.039C11.0943 123.4 12.5286 120.718 14.2237 118.209C16.4839 114.792 19.9611 113.84 23.5686 115.614C27.0893 117.388 30.5663 119.204 33.8698 121.324C37.2164 123.487 38.4768 126.644 36.8251 130.537C35.3476 134.041 33.522 137.372 31.7398 140.746C30.6098 142.865 29.4363 144.898 28.1324 146.888C26.2198 149.786 23.4382 151.343 20.0914 151.603C17.614 151.819 15.18 151.862 12.094 151.992Z" fill="#086C81"/>
</svg>
